<?xml version="1.0" standalone="no"?>
<!DOCTYPE svg PUBLIC "-//W3C//DTD SVG 20010904//EN"
 "http://www.w3.org/TR/2001/REC-SVG-20010904/DTD/svg10.dtd">
<svg version="1.0" xmlns="http://www.w3.org/2000/svg"
 width="260.000000pt" height="260.000000pt" viewBox="0 0 260.000000 260.000000"
 preserveAspectRatio="xMidYMid meet">
<metadata>
Created by potrace 1.14, written by Peter Selinger 2001-2017
</metadata>
<g transform="translate(0.000000,260.000000) scale(0.100000,-0.100000)"
fill="#000000" stroke="none">
<path d="M1036 2422 c-74 -92 -145 -179 -158 -194 -13 -15 -45 -55 -73 -90
-27 -35 -52 -65 -55 -68 -3 -3 -22 -25 -41 -50 -20 -25 -106 -130 -190 -235
-85 -104 -177 -217 -203 -250 -27 -33 -64 -78 -82 -100 -18 -22 -75 -93 -128
-158 l-95 -118 282 -231 c155 -127 302 -247 326 -267 24 -20 60 -49 81 -66 20
-16 129 -105 241 -197 112 -92 267 -218 345 -281 l141 -115 89 111 c49 62 91
114 94 117 4 3 62 75 131 160 68 85 130 162 137 170 19 23 15 33 -15 36 -117
12 -147 16 -187 28 -71 22 -140 80 -178 150 -30 56 -33 68 -33 151 0 75 4 98
24 136 34 68 69 104 131 136 48 24 66 27 145 27 79 0 96 -3 140 -27 120 -65
150 -157 135 -410 -3 -48 -4 -87 -3 -87 1 0 30 35 64 78 35 42 66 79 69 82 3
3 58 70 122 150 64 80 160 197 212 262 l96 116 -44 39 c-24 21 -60 52 -81 68
-21 17 -43 35 -49 40 -6 6 -58 48 -116 95 -58 47 -116 94 -130 106 -97 82
-280 233 -305 251 l-31 21 -34 -48 c-19 -27 -38 -49 -42 -50 -27 -1 7 -38 113
-125 67 -55 127 -104 133 -110 6 -5 34 -28 61 -50 28 -22 61 -50 75 -61 26
-22 87 -74 159 -133 22 -18 48 -39 58 -46 15 -12 16 -15 1 -36 -9 -13 -25 -35
-37 -49 -37 -41 -54 -63 -96 -115 -66 -82 -61 -81 -90 -22 -68 140 -206 217
-385 217 -141 0 -247 -46 -335 -143 -79 -87 -108 -164 -111 -297 -3 -121 15
-189 71 -274 55 -83 98 -122 183 -165 46 -23 48 -26 30 -45 -7 -7 -26 -30 -43
-50 -16 -21 -40 -50 -53 -65 -13 -14 -37 -45 -54 -68 -17 -24 -34 -43 -38 -43
-3 0 -61 45 -129 101 l-122 101 6 81 c3 45 8 100 10 122 2 22 7 81 10 130 4
50 8 113 10 140 2 28 7 91 11 140 3 50 8 106 10 125 2 19 6 78 9 130 4 52 8
115 10 140 2 25 6 83 10 130 3 47 8 103 10 125 2 22 7 85 11 140 3 55 7 107 9
116 4 17 -13 34 -100 104 -27 22 -56 46 -63 53 -8 7 -29 24 -48 38 l-34 26 81
99 c71 86 84 98 98 87 31 -24 116 -93 121 -98 3 -3 27 -24 55 -45 27 -22 59
-48 70 -57 11 -9 30 -25 42 -35 18 -14 24 -32 28 -83 3 -36 8 -74 10 -85 2
-11 4 -23 4 -26 1 -4 16 -5 34 -3 17 2 50 6 72 8 38 3 40 5 39 37 -2 54 -15
182 -20 202 -3 9 -38 43 -77 74 -40 31 -74 59 -77 63 -3 3 -30 25 -60 50 -30
25 -57 47 -60 50 -3 3 -53 45 -112 93 l-107 87 -135 -168z m-37 -421 c13 -12
44 -36 67 -54 24 -17 43 -34 44 -37 0 -4 -52 -72 -143 -184 -62 -76 -318 -391
-335 -411 -9 -11 -34 -41 -54 -67 l-38 -46 118 -99 c65 -54 138 -114 162 -133
24 -19 81 -66 128 -105 l84 -69 -7 -111 c-4 -60 -7 -118 -7 -128 1 -11 -4 -15
-11 -10 -14 8 -147 113 -165 130 -7 7 -34 29 -60 50 -26 21 -49 40 -52 43 -3
3 -21 17 -40 31 -19 15 -45 36 -58 47 -13 11 -42 35 -64 54 -23 18 -83 67
-133 108 -50 41 -116 95 -147 120 -31 25 -57 48 -58 51 0 4 35 49 78 102 42
52 111 136 152 187 41 51 82 100 90 110 8 10 47 57 85 105 81 101 171 211 223
274 21 24 46 56 56 71 19 26 20 26 40 9 12 -10 32 -27 45 -38z m96 -403 c-2
-18 -7 -71 -10 -118 -3 -47 -8 -110 -10 -140 -2 -30 -7 -86 -9 -125 -12 -155
-18 -220 -21 -224 -2 -2 -25 14 -52 35 -26 22 -56 46 -66 54 -10 8 -31 25 -45
38 -15 12 -46 37 -69 55 -44 33 -60 56 -46 66 5 3 24 26 43 51 19 25 42 54 52
65 67 82 140 170 178 218 25 31 48 57 52 57 4 0 6 -15 3 -32z"/>
<path d="M1532 1770 c-31 -30 -48 -79 -28 -81 14 -2 8 -2 96 6 41 5 83 7 93 7
20 -1 21 8 5 43 -27 60 -118 74 -166 25z"/>
</g>
</svg>
